<mxfile host="app.diagrams.net" modified="2021-07-14T02:22:10.043Z" agent="5.0 (Windows NT 10.0; Win64; x64) AppleWebKit/537.36 (KHTML, like Gecko) Chrome/91.0.4472.124 Safari/537.36" etag="AT_iIs5U8YdRQXfq3qpE" version="14.8.6" type="github" pages="2">
  <diagram id="fj6QsGLIF5zpcB3G1yky" name="4 NÃºmeros">
    <mxGraphModel dx="1102" dy="582" grid="1" gridSize="10" guides="1" tooltips="1" connect="1" arrows="1" fold="1" page="1" pageScale="1" pageWidth="1169" pageHeight="1654" math="0" shadow="0">
      <root>
        <mxCell id="PK90AZNPbYMcKVVDFPUc-0" />
        <mxCell id="PK90AZNPbYMcKVVDFPUc-1" parent="PK90AZNPbYMcKVVDFPUc-0" />
        <mxCell id="PK90AZNPbYMcKVVDFPUc-3" style="edgeStyle=orthogonalEdgeStyle;rounded=0;orthogonalLoop=1;jettySize=auto;html=1;" edge="1" parent="PK90AZNPbYMcKVVDFPUc-1" source="PK90AZNPbYMcKVVDFPUc-2" target="PK90AZNPbYMcKVVDFPUc-4">
          <mxGeometry relative="1" as="geometry">
            <mxPoint x="210" y="160" as="targetPoint" />
          </mxGeometry>
        </mxCell>
        <mxCell id="PK90AZNPbYMcKVVDFPUc-2" value="4 numeros" style="ellipse;whiteSpace=wrap;html=1;" vertex="1" parent="PK90AZNPbYMcKVVDFPUc-1">
          <mxGeometry x="150" y="10" width="120" height="80" as="geometry" />
        </mxCell>
        <mxCell id="PK90AZNPbYMcKVVDFPUc-5" style="edgeStyle=orthogonalEdgeStyle;rounded=0;orthogonalLoop=1;jettySize=auto;html=1;" edge="1" parent="PK90AZNPbYMcKVVDFPUc-1" source="PK90AZNPbYMcKVVDFPUc-4" target="PK90AZNPbYMcKVVDFPUc-6">
          <mxGeometry relative="1" as="geometry">
            <mxPoint x="210" y="250" as="targetPoint" />
          </mxGeometry>
        </mxCell>
        <mxCell id="PK90AZNPbYMcKVVDFPUc-4" value="ingresar 4 numeros" style="rounded=0;whiteSpace=wrap;html=1;" vertex="1" parent="PK90AZNPbYMcKVVDFPUc-1">
          <mxGeometry x="150" y="130" width="120" height="60" as="geometry" />
        </mxCell>
        <mxCell id="PK90AZNPbYMcKVVDFPUc-10" style="edgeStyle=orthogonalEdgeStyle;rounded=0;orthogonalLoop=1;jettySize=auto;html=1;" edge="1" parent="PK90AZNPbYMcKVVDFPUc-1" source="PK90AZNPbYMcKVVDFPUc-6">
          <mxGeometry relative="1" as="geometry">
            <mxPoint x="375" y="320" as="targetPoint" />
          </mxGeometry>
        </mxCell>
        <mxCell id="PK90AZNPbYMcKVVDFPUc-12" style="edgeStyle=orthogonalEdgeStyle;rounded=0;orthogonalLoop=1;jettySize=auto;html=1;" edge="1" parent="PK90AZNPbYMcKVVDFPUc-1" source="PK90AZNPbYMcKVVDFPUc-6" target="PK90AZNPbYMcKVVDFPUc-13">
          <mxGeometry relative="1" as="geometry">
            <mxPoint x="510" y="160" as="targetPoint" />
          </mxGeometry>
        </mxCell>
        <mxCell id="PK90AZNPbYMcKVVDFPUc-6" value="A es mayor que &lt;br&gt;B , C y D?" style="rhombus;whiteSpace=wrap;html=1;" vertex="1" parent="PK90AZNPbYMcKVVDFPUc-1">
          <mxGeometry x="300" y="105" width="150" height="110" as="geometry" />
        </mxCell>
        <mxCell id="PK90AZNPbYMcKVVDFPUc-8" value="si" style="text;html=1;align=center;verticalAlign=middle;resizable=0;points=[];autosize=1;strokeColor=none;" vertex="1" parent="PK90AZNPbYMcKVVDFPUc-1">
          <mxGeometry x="410" y="105" width="30" height="20" as="geometry" />
        </mxCell>
        <mxCell id="PK90AZNPbYMcKVVDFPUc-9" value="no" style="text;html=1;align=center;verticalAlign=middle;resizable=0;points=[];autosize=1;strokeColor=none;" vertex="1" parent="PK90AZNPbYMcKVVDFPUc-1">
          <mxGeometry x="330" y="200" width="30" height="20" as="geometry" />
        </mxCell>
        <mxCell id="PK90AZNPbYMcKVVDFPUc-14" style="edgeStyle=orthogonalEdgeStyle;rounded=0;orthogonalLoop=1;jettySize=auto;html=1;entryX=0.5;entryY=0;entryDx=0;entryDy=0;" edge="1" parent="PK90AZNPbYMcKVVDFPUc-1" source="PK90AZNPbYMcKVVDFPUc-13" target="PK90AZNPbYMcKVVDFPUc-17">
          <mxGeometry relative="1" as="geometry">
            <mxPoint x="550" y="260" as="targetPoint" />
          </mxGeometry>
        </mxCell>
        <mxCell id="PK90AZNPbYMcKVVDFPUc-13" value="A es mayor" style="rounded=0;whiteSpace=wrap;html=1;" vertex="1" parent="PK90AZNPbYMcKVVDFPUc-1">
          <mxGeometry x="490" y="130" width="120" height="60" as="geometry" />
        </mxCell>
        <mxCell id="PK90AZNPbYMcKVVDFPUc-16" style="edgeStyle=orthogonalEdgeStyle;rounded=0;orthogonalLoop=1;jettySize=auto;html=1;" edge="1" parent="PK90AZNPbYMcKVVDFPUc-1">
          <mxGeometry relative="1" as="geometry">
            <mxPoint x="490" y="349.5" as="targetPoint" />
            <mxPoint x="440" y="349.5" as="sourcePoint" />
          </mxGeometry>
        </mxCell>
        <mxCell id="PK90AZNPbYMcKVVDFPUc-20" style="edgeStyle=orthogonalEdgeStyle;rounded=0;orthogonalLoop=1;jettySize=auto;html=1;" edge="1" parent="PK90AZNPbYMcKVVDFPUc-1">
          <mxGeometry relative="1" as="geometry">
            <mxPoint x="375" y="500" as="targetPoint" />
            <mxPoint x="375" y="400" as="sourcePoint" />
          </mxGeometry>
        </mxCell>
        <mxCell id="PK90AZNPbYMcKVVDFPUc-35" style="edgeStyle=orthogonalEdgeStyle;rounded=0;orthogonalLoop=1;jettySize=auto;html=1;" edge="1" parent="PK90AZNPbYMcKVVDFPUc-1" source="PK90AZNPbYMcKVVDFPUc-17" target="PK90AZNPbYMcKVVDFPUc-23">
          <mxGeometry relative="1" as="geometry" />
        </mxCell>
        <mxCell id="PK90AZNPbYMcKVVDFPUc-17" value="B es mayor" style="rounded=0;whiteSpace=wrap;html=1;" vertex="1" parent="PK90AZNPbYMcKVVDFPUc-1">
          <mxGeometry x="490" y="320" width="120" height="60" as="geometry" />
        </mxCell>
        <mxCell id="PK90AZNPbYMcKVVDFPUc-18" value="si" style="text;html=1;strokeColor=none;fillColor=none;align=center;verticalAlign=middle;whiteSpace=wrap;rounded=0;" vertex="1" parent="PK90AZNPbYMcKVVDFPUc-1">
          <mxGeometry x="400" y="300" width="40" height="20" as="geometry" />
        </mxCell>
        <mxCell id="PK90AZNPbYMcKVVDFPUc-19" value="no" style="text;html=1;align=center;verticalAlign=middle;resizable=0;points=[];autosize=1;strokeColor=none;" vertex="1" parent="PK90AZNPbYMcKVVDFPUc-1">
          <mxGeometry x="325" y="400" width="30" height="20" as="geometry" />
        </mxCell>
        <mxCell id="PK90AZNPbYMcKVVDFPUc-22" style="edgeStyle=orthogonalEdgeStyle;rounded=0;orthogonalLoop=1;jettySize=auto;html=1;" edge="1" parent="PK90AZNPbYMcKVVDFPUc-1">
          <mxGeometry relative="1" as="geometry">
            <mxPoint x="490" y="530" as="targetPoint" />
            <mxPoint x="440" y="530" as="sourcePoint" />
          </mxGeometry>
        </mxCell>
        <mxCell id="PK90AZNPbYMcKVVDFPUc-26" style="edgeStyle=orthogonalEdgeStyle;rounded=0;orthogonalLoop=1;jettySize=auto;html=1;" edge="1" parent="PK90AZNPbYMcKVVDFPUc-1">
          <mxGeometry relative="1" as="geometry">
            <mxPoint x="375" y="650" as="targetPoint" />
            <mxPoint x="375" y="570" as="sourcePoint" />
          </mxGeometry>
        </mxCell>
        <mxCell id="PK90AZNPbYMcKVVDFPUc-36" style="edgeStyle=orthogonalEdgeStyle;rounded=0;orthogonalLoop=1;jettySize=auto;html=1;" edge="1" parent="PK90AZNPbYMcKVVDFPUc-1" source="PK90AZNPbYMcKVVDFPUc-23">
          <mxGeometry relative="1" as="geometry">
            <mxPoint x="550" y="650" as="targetPoint" />
          </mxGeometry>
        </mxCell>
        <mxCell id="PK90AZNPbYMcKVVDFPUc-23" value="C es mayor" style="rounded=0;whiteSpace=wrap;html=1;" vertex="1" parent="PK90AZNPbYMcKVVDFPUc-1">
          <mxGeometry x="490" y="500" width="120" height="60" as="geometry" />
        </mxCell>
        <mxCell id="PK90AZNPbYMcKVVDFPUc-24" value="si" style="text;html=1;align=center;verticalAlign=middle;resizable=0;points=[];autosize=1;strokeColor=none;" vertex="1" parent="PK90AZNPbYMcKVVDFPUc-1">
          <mxGeometry x="395" y="480" width="30" height="20" as="geometry" />
        </mxCell>
        <mxCell id="PK90AZNPbYMcKVVDFPUc-25" value="no" style="text;html=1;align=center;verticalAlign=middle;resizable=0;points=[];autosize=1;strokeColor=none;" vertex="1" parent="PK90AZNPbYMcKVVDFPUc-1">
          <mxGeometry x="315" y="570" width="30" height="20" as="geometry" />
        </mxCell>
        <mxCell id="PK90AZNPbYMcKVVDFPUc-30" value="si" style="text;html=1;align=center;verticalAlign=middle;resizable=0;points=[];autosize=1;strokeColor=none;" vertex="1" parent="PK90AZNPbYMcKVVDFPUc-1">
          <mxGeometry x="395" y="620" width="30" height="20" as="geometry" />
        </mxCell>
        <mxCell id="PK90AZNPbYMcKVVDFPUc-31" value="no" style="text;html=1;align=center;verticalAlign=middle;resizable=0;points=[];autosize=1;strokeColor=none;" vertex="1" parent="PK90AZNPbYMcKVVDFPUc-1">
          <mxGeometry x="315" y="710" width="30" height="20" as="geometry" />
        </mxCell>
        <mxCell id="PK90AZNPbYMcKVVDFPUc-34" value="B es mayor que &lt;br&gt;A , C Y D?" style="rhombus;whiteSpace=wrap;html=1;" vertex="1" parent="PK90AZNPbYMcKVVDFPUc-1">
          <mxGeometry x="300" y="290" width="150" height="110" as="geometry" />
        </mxCell>
        <mxCell id="PK90AZNPbYMcKVVDFPUc-37" value="C es mayor que&amp;nbsp;&lt;br&gt;A, B Y D?" style="rhombus;whiteSpace=wrap;html=1;" vertex="1" parent="PK90AZNPbYMcKVVDFPUc-1">
          <mxGeometry x="300" y="475" width="150" height="110" as="geometry" />
        </mxCell>
        <mxCell id="PK90AZNPbYMcKVVDFPUc-40" style="edgeStyle=orthogonalEdgeStyle;rounded=0;orthogonalLoop=1;jettySize=auto;html=1;entryX=0;entryY=0.5;entryDx=0;entryDy=0;" edge="1" parent="PK90AZNPbYMcKVVDFPUc-1" source="PK90AZNPbYMcKVVDFPUc-38" target="PK90AZNPbYMcKVVDFPUc-39">
          <mxGeometry relative="1" as="geometry" />
        </mxCell>
        <mxCell id="PK90AZNPbYMcKVVDFPUc-38" value="D es mayor que&amp;nbsp;&lt;br&gt;A , B Y C?" style="rhombus;whiteSpace=wrap;html=1;" vertex="1" parent="PK90AZNPbYMcKVVDFPUc-1">
          <mxGeometry x="300" y="620" width="150" height="110" as="geometry" />
        </mxCell>
        <mxCell id="PK90AZNPbYMcKVVDFPUc-41" style="edgeStyle=orthogonalEdgeStyle;rounded=0;orthogonalLoop=1;jettySize=auto;html=1;entryX=0.5;entryY=1;entryDx=0;entryDy=0;" edge="1" parent="PK90AZNPbYMcKVVDFPUc-1" source="PK90AZNPbYMcKVVDFPUc-39" target="PK90AZNPbYMcKVVDFPUc-38">
          <mxGeometry relative="1" as="geometry">
            <mxPoint x="370" y="800" as="targetPoint" />
            <Array as="points">
              <mxPoint x="550" y="800" />
              <mxPoint x="375" y="800" />
            </Array>
          </mxGeometry>
        </mxCell>
        <mxCell id="PK90AZNPbYMcKVVDFPUc-39" value="D es mayor" style="rounded=0;whiteSpace=wrap;html=1;" vertex="1" parent="PK90AZNPbYMcKVVDFPUc-1">
          <mxGeometry x="490" y="645" width="120" height="60" as="geometry" />
        </mxCell>
      </root>
    </mxGraphModel>
  </diagram>
  <diagram id="j3VicT8K_rTtAJutuKS0" name="Page-2">
    <mxGraphModel dx="1102" dy="582" grid="1" gridSize="10" guides="1" tooltips="1" connect="1" arrows="1" fold="1" page="1" pageScale="1" pageWidth="1169" pageHeight="1654" math="0" shadow="0">
      <root>
        <mxCell id="UEj_flshiFNKeRk_OgfW-0" />
        <mxCell id="UEj_flshiFNKeRk_OgfW-1" parent="UEj_flshiFNKeRk_OgfW-0" />
        <mxCell id="UEj_flshiFNKeRk_OgfW-3" style="edgeStyle=orthogonalEdgeStyle;rounded=0;orthogonalLoop=1;jettySize=auto;html=1;" edge="1" parent="UEj_flshiFNKeRk_OgfW-1" source="UEj_flshiFNKeRk_OgfW-2" target="UEj_flshiFNKeRk_OgfW-4">
          <mxGeometry relative="1" as="geometry">
            <mxPoint x="170" y="310" as="targetPoint" />
          </mxGeometry>
        </mxCell>
        <mxCell id="UEj_flshiFNKeRk_OgfW-2" value="llamado a un cliente" style="ellipse;whiteSpace=wrap;html=1;" vertex="1" parent="UEj_flshiFNKeRk_OgfW-1">
          <mxGeometry x="110" y="130" width="120" height="80" as="geometry" />
        </mxCell>
        <mxCell id="UEj_flshiFNKeRk_OgfW-5" style="edgeStyle=orthogonalEdgeStyle;rounded=0;orthogonalLoop=1;jettySize=auto;html=1;" edge="1" parent="UEj_flshiFNKeRk_OgfW-1" source="UEj_flshiFNKeRk_OgfW-4" target="UEj_flshiFNKeRk_OgfW-6">
          <mxGeometry relative="1" as="geometry">
            <mxPoint x="170" y="420" as="targetPoint" />
          </mxGeometry>
        </mxCell>
        <mxCell id="UEj_flshiFNKeRk_OgfW-4" value="ejecutiva llama&amp;nbsp;" style="rounded=0;whiteSpace=wrap;html=1;" vertex="1" parent="UEj_flshiFNKeRk_OgfW-1">
          <mxGeometry x="110" y="280" width="120" height="60" as="geometry" />
        </mxCell>
        <mxCell id="UEj_flshiFNKeRk_OgfW-18" style="edgeStyle=orthogonalEdgeStyle;rounded=0;orthogonalLoop=1;jettySize=auto;html=1;entryX=0.5;entryY=1;entryDx=0;entryDy=0;" edge="1" parent="UEj_flshiFNKeRk_OgfW-1" source="UEj_flshiFNKeRk_OgfW-6" target="UEj_flshiFNKeRk_OgfW-13">
          <mxGeometry relative="1" as="geometry">
            <mxPoint x="360" y="420" as="targetPoint" />
          </mxGeometry>
        </mxCell>
        <mxCell id="UEj_flshiFNKeRk_OgfW-6" value="el cliente contesta" style="rounded=0;whiteSpace=wrap;html=1;" vertex="1" parent="UEj_flshiFNKeRk_OgfW-1">
          <mxGeometry x="110" y="390" width="120" height="60" as="geometry" />
        </mxCell>
        <mxCell id="UEj_flshiFNKeRk_OgfW-16" style="edgeStyle=orthogonalEdgeStyle;rounded=0;orthogonalLoop=1;jettySize=auto;html=1;" edge="1" parent="UEj_flshiFNKeRk_OgfW-1" source="UEj_flshiFNKeRk_OgfW-13">
          <mxGeometry relative="1" as="geometry">
            <mxPoint x="480" y="220" as="targetPoint" />
          </mxGeometry>
        </mxCell>
        <mxCell id="UEj_flshiFNKeRk_OgfW-17" style="edgeStyle=orthogonalEdgeStyle;rounded=0;orthogonalLoop=1;jettySize=auto;html=1;" edge="1" parent="UEj_flshiFNKeRk_OgfW-1" source="UEj_flshiFNKeRk_OgfW-13">
          <mxGeometry relative="1" as="geometry">
            <mxPoint x="480" y="420" as="targetPoint" />
            <Array as="points">
              <mxPoint x="480" y="313" />
            </Array>
          </mxGeometry>
        </mxCell>
        <mxCell id="UEj_flshiFNKeRk_OgfW-13" value="Hola, desea contratar TNT sport?" style="rhombus;whiteSpace=wrap;html=1;" vertex="1" parent="UEj_flshiFNKeRk_OgfW-1">
          <mxGeometry x="300" y="255" width="110" height="115" as="geometry" />
        </mxCell>
        <mxCell id="UEj_flshiFNKeRk_OgfW-14" value="si" style="text;html=1;align=center;verticalAlign=middle;resizable=0;points=[];autosize=1;strokeColor=none;" vertex="1" parent="UEj_flshiFNKeRk_OgfW-1">
          <mxGeometry x="380" y="250" width="30" height="20" as="geometry" />
        </mxCell>
        <mxCell id="UEj_flshiFNKeRk_OgfW-15" value="no" style="text;html=1;align=center;verticalAlign=middle;resizable=0;points=[];autosize=1;strokeColor=none;" vertex="1" parent="UEj_flshiFNKeRk_OgfW-1">
          <mxGeometry x="390" y="350" width="30" height="20" as="geometry" />
        </mxCell>
        <mxCell id="UEj_flshiFNKeRk_OgfW-20" style="edgeStyle=orthogonalEdgeStyle;rounded=0;orthogonalLoop=1;jettySize=auto;html=1;" edge="1" parent="UEj_flshiFNKeRk_OgfW-1" source="UEj_flshiFNKeRk_OgfW-19" target="UEj_flshiFNKeRk_OgfW-21">
          <mxGeometry relative="1" as="geometry">
            <mxPoint x="480" y="70" as="targetPoint" />
          </mxGeometry>
        </mxCell>
        <mxCell id="UEj_flshiFNKeRk_OgfW-19" value="pasa a nueva ejecutiva&amp;nbsp;" style="rounded=0;whiteSpace=wrap;html=1;" vertex="1" parent="UEj_flshiFNKeRk_OgfW-1">
          <mxGeometry x="420" y="150" width="120" height="60" as="geometry" />
        </mxCell>
        <mxCell id="UEj_flshiFNKeRk_OgfW-21" value="fin" style="ellipse;whiteSpace=wrap;html=1;" vertex="1" parent="UEj_flshiFNKeRk_OgfW-1">
          <mxGeometry x="420" y="30" width="120" height="80" as="geometry" />
        </mxCell>
        <mxCell id="UEj_flshiFNKeRk_OgfW-26" style="edgeStyle=orthogonalEdgeStyle;rounded=0;orthogonalLoop=1;jettySize=auto;html=1;" edge="1" parent="UEj_flshiFNKeRk_OgfW-1" source="UEj_flshiFNKeRk_OgfW-23">
          <mxGeometry relative="1" as="geometry">
            <mxPoint x="480" y="600" as="targetPoint" />
          </mxGeometry>
        </mxCell>
        <mxCell id="UEj_flshiFNKeRk_OgfW-27" style="edgeStyle=orthogonalEdgeStyle;rounded=0;orthogonalLoop=1;jettySize=auto;html=1;" edge="1" parent="UEj_flshiFNKeRk_OgfW-1" source="UEj_flshiFNKeRk_OgfW-23">
          <mxGeometry relative="1" as="geometry">
            <mxPoint x="600" y="478" as="targetPoint" />
          </mxGeometry>
        </mxCell>
        <mxCell id="UEj_flshiFNKeRk_OgfW-23" value="Hola, desea contratar HBO?" style="rhombus;whiteSpace=wrap;html=1;" vertex="1" parent="UEj_flshiFNKeRk_OgfW-1">
          <mxGeometry x="425" y="420" width="110" height="115" as="geometry" />
        </mxCell>
        <mxCell id="UEj_flshiFNKeRk_OgfW-24" value="si" style="text;html=1;align=center;verticalAlign=middle;resizable=0;points=[];autosize=1;strokeColor=none;" vertex="1" parent="UEj_flshiFNKeRk_OgfW-1">
          <mxGeometry x="505" y="420" width="30" height="20" as="geometry" />
        </mxCell>
        <mxCell id="UEj_flshiFNKeRk_OgfW-25" value="no" style="text;html=1;align=center;verticalAlign=middle;resizable=0;points=[];autosize=1;strokeColor=none;" vertex="1" parent="UEj_flshiFNKeRk_OgfW-1">
          <mxGeometry x="415" y="520" width="30" height="20" as="geometry" />
        </mxCell>
        <mxCell id="UEj_flshiFNKeRk_OgfW-29" style="edgeStyle=orthogonalEdgeStyle;rounded=0;orthogonalLoop=1;jettySize=auto;html=1;" edge="1" parent="UEj_flshiFNKeRk_OgfW-1" source="UEj_flshiFNKeRk_OgfW-28" target="UEj_flshiFNKeRk_OgfW-30">
          <mxGeometry relative="1" as="geometry">
            <mxPoint x="770" y="470" as="targetPoint" />
          </mxGeometry>
        </mxCell>
        <mxCell id="UEj_flshiFNKeRk_OgfW-28" value="pasa a nueva ajecutiva" style="rounded=0;whiteSpace=wrap;html=1;" vertex="1" parent="UEj_flshiFNKeRk_OgfW-1">
          <mxGeometry x="600" y="440" width="120" height="60" as="geometry" />
        </mxCell>
        <mxCell id="UEj_flshiFNKeRk_OgfW-30" value="fin" style="ellipse;whiteSpace=wrap;html=1;" vertex="1" parent="UEj_flshiFNKeRk_OgfW-1">
          <mxGeometry x="790" y="430" width="120" height="80" as="geometry" />
        </mxCell>
        <mxCell id="UEj_flshiFNKeRk_OgfW-35" style="edgeStyle=orthogonalEdgeStyle;rounded=0;orthogonalLoop=1;jettySize=auto;html=1;" edge="1" parent="UEj_flshiFNKeRk_OgfW-1" source="UEj_flshiFNKeRk_OgfW-32">
          <mxGeometry relative="1" as="geometry">
            <mxPoint x="600" y="657.5" as="targetPoint" />
          </mxGeometry>
        </mxCell>
        <mxCell id="UEj_flshiFNKeRk_OgfW-40" style="edgeStyle=orthogonalEdgeStyle;rounded=0;orthogonalLoop=1;jettySize=auto;html=1;" edge="1" parent="UEj_flshiFNKeRk_OgfW-1" source="UEj_flshiFNKeRk_OgfW-32">
          <mxGeometry relative="1" as="geometry">
            <mxPoint x="480" y="800" as="targetPoint" />
          </mxGeometry>
        </mxCell>
        <mxCell id="UEj_flshiFNKeRk_OgfW-32" value="Desea contratar algÃºn &lt;br&gt;otro canal?" style="rhombus;whiteSpace=wrap;html=1;" vertex="1" parent="UEj_flshiFNKeRk_OgfW-1">
          <mxGeometry x="425" y="600" width="110" height="115" as="geometry" />
        </mxCell>
        <mxCell id="UEj_flshiFNKeRk_OgfW-33" value="si" style="text;html=1;align=center;verticalAlign=middle;resizable=0;points=[];autosize=1;strokeColor=none;" vertex="1" parent="UEj_flshiFNKeRk_OgfW-1">
          <mxGeometry x="500" y="600" width="30" height="20" as="geometry" />
        </mxCell>
        <mxCell id="UEj_flshiFNKeRk_OgfW-34" value="no" style="text;html=1;align=center;verticalAlign=middle;resizable=0;points=[];autosize=1;strokeColor=none;" vertex="1" parent="UEj_flshiFNKeRk_OgfW-1">
          <mxGeometry x="415" y="700" width="30" height="20" as="geometry" />
        </mxCell>
        <mxCell id="UEj_flshiFNKeRk_OgfW-38" style="edgeStyle=orthogonalEdgeStyle;rounded=0;orthogonalLoop=1;jettySize=auto;html=1;" edge="1" parent="UEj_flshiFNKeRk_OgfW-1" source="UEj_flshiFNKeRk_OgfW-37">
          <mxGeometry relative="1" as="geometry">
            <mxPoint x="790" y="657.5" as="targetPoint" />
          </mxGeometry>
        </mxCell>
        <mxCell id="UEj_flshiFNKeRk_OgfW-37" value="pasa a nueva ejecutiva" style="rounded=0;whiteSpace=wrap;html=1;" vertex="1" parent="UEj_flshiFNKeRk_OgfW-1">
          <mxGeometry x="600" y="627.5" width="120" height="60" as="geometry" />
        </mxCell>
        <mxCell id="UEj_flshiFNKeRk_OgfW-39" value="fin" style="ellipse;whiteSpace=wrap;html=1;" vertex="1" parent="UEj_flshiFNKeRk_OgfW-1">
          <mxGeometry x="800" y="617.5" width="120" height="80" as="geometry" />
        </mxCell>
        <mxCell id="UEj_flshiFNKeRk_OgfW-42" style="edgeStyle=orthogonalEdgeStyle;rounded=0;orthogonalLoop=1;jettySize=auto;html=1;startArrow=none;" edge="1" parent="UEj_flshiFNKeRk_OgfW-1" source="UEj_flshiFNKeRk_OgfW-44">
          <mxGeometry relative="1" as="geometry">
            <mxPoint x="480" y="1000" as="targetPoint" />
          </mxGeometry>
        </mxCell>
        <mxCell id="UEj_flshiFNKeRk_OgfW-41" value="gracias por su tiempo" style="rounded=0;whiteSpace=wrap;html=1;" vertex="1" parent="UEj_flshiFNKeRk_OgfW-1">
          <mxGeometry x="420" y="800" width="120" height="60" as="geometry" />
        </mxCell>
        <mxCell id="UEj_flshiFNKeRk_OgfW-44" value="finaliza llamada" style="rounded=0;whiteSpace=wrap;html=1;" vertex="1" parent="UEj_flshiFNKeRk_OgfW-1">
          <mxGeometry x="420" y="900" width="120" height="60" as="geometry" />
        </mxCell>
        <mxCell id="UEj_flshiFNKeRk_OgfW-45" value="" style="edgeStyle=orthogonalEdgeStyle;rounded=0;orthogonalLoop=1;jettySize=auto;html=1;endArrow=none;" edge="1" parent="UEj_flshiFNKeRk_OgfW-1" source="UEj_flshiFNKeRk_OgfW-41" target="UEj_flshiFNKeRk_OgfW-44">
          <mxGeometry relative="1" as="geometry">
            <mxPoint x="480" y="1000" as="targetPoint" />
            <mxPoint x="480" y="860" as="sourcePoint" />
          </mxGeometry>
        </mxCell>
        <mxCell id="UEj_flshiFNKeRk_OgfW-46" value="fin" style="ellipse;whiteSpace=wrap;html=1;" vertex="1" parent="UEj_flshiFNKeRk_OgfW-1">
          <mxGeometry x="420" y="1000" width="120" height="80" as="geometry" />
        </mxCell>
      </root>
    </mxGraphModel>
  </diagram>
</mxfile>
